# xmcd
#
# Track frame offsets:
#	150
#	15595
#	34112
#	50777
#
# Disc length: 907 seconds
#
# Revision: 0
# Processed by: cddbd v1.5.2PL0 Copyright (c) Steve Scherf et al.
# Submitted via: audiograbber 1.83.01
#
DISCID=2c038904
DTITLE=Nylon Beat - Last In Line - Eternal Love [CDM)
DYEAR=2002
DGENRE=Pop
TTITLE0=Last In Line
TTITLE1=Last In Line (Radio Stutter)
TTITLE2=Last In Line (Sunshine Mix)
TTITLE3=Eternal Love
EXTD=TR.
EXTT0=
EXTT1=
EXTT2=
EXTT3=
PLAYORDER=
